---
title: ACDC-StiffUpperLipFLAC+CUE
date: 2022-08-18 08:39:38
categories: 外语音乐
tags: 外语音乐
---
# ACDC-StiffUpperLip[FLAC+CUE]

REM GENRE Hard Rock
REM DATE 2000
REM COMMENT CD
PERFORMER "AC/DC"
TITLE "Stiff Upper Lip"
FILE "ACDC - Stiff Upper Lip.flac" WAVE
TRACK 01 AUDIO
TITLE "Stiff Upper Lip"
PERFORMER "AC/DC"
INDEX 01 00:00:00
TRACK 02 AUDIO
TITLE "Meltdown"
PERFORMER "AC/DC"
INDEX 01 03:36:30
TRACK 03 AUDIO
TITLE "House Of Jazz"
PERFORMER "AC/DC"
INDEX 01 07:18:55
TRACK 04 AUDIO
TITLE "Hold Me Back"
PERFORMER "AC/DC"
INDEX 01 11:16:55
TRACK 05 AUDIO
TITLE "Safe In New York City"
PERFORMER "AC/DC"
INDEX 01 15:17:55
TRACK 06 AUDIO
TITLE "Can't Stand Still"
PERFORMER "AC/DC"
INDEX 01 19:18:55
TRACK 07 AUDIO
TITLE "Can't Stop Rock 'n' Roll"
PERFORMER "AC/DC"
INDEX 01 22:59:55
TRACK 08 AUDIO
TITLE "Satellite Blues"
PERFORMER "AC/DC"
INDEX 01 27:03:60
TRACK 09 AUDIO
TITLE "Damned"
PERFORMER "AC/DC"
INDEX 01 30:51:40
TRACK 10 AUDIO
TITLE "Come And Get It"
PERFORMER "AC/DC"
INDEX 01 34:45:15
TRACK 11 AUDIO
TITLE "All Screwed Up"
PERFORMER "AC/DC"
INDEX 01 38:49:55
TRACK 12 AUDIO
TITLE "Give It Up"
PERFORMER "AC/DC"
INDEX 01 43:27:55
ACDC - Stiff Upper Lip[FLAC+CUE].zip: https://url27.ctfile.com/f/9388027-650659333-7b19b3?p=559675
(访问密码: 559675)
原文：[链接](https://blog.sina.com.cn/s/blog_1647c7e7601030yxg.html)